<?xml version="1.0" encoding="UTF-8"?>
<svg width="42px" height="28px" viewBox="0 0 42 28" version="1.1" xmlns="http://www.w3.org/2000/svg" xmlns:xlink="http://www.w3.org/1999/xlink" style="background: #FFFFFF;">
    <!-- Generator: Sketch 46.2 (44496) - http://www.bohemiancoding.com/sketch -->
    <title>logomark</title>
    <desc>Created with Sketch.</desc>
    <defs>
        <polygon id="path-1" points="0 17.7333333 31.9593412 17.7333333 31.9593412 0.0266953405 0 0.0266953405"></polygon>
    </defs>
    <g id="Page-1" stroke="none" stroke-width="1" fill="#CCC" fill-rule="evenodd">
        <g id="logomark">
            <g id="Page-1" transform="translate(5.000000, 5.000000)">
                <g id="Group-3">
                    <mask id="mask-2" fill="">
                        <use xlink:href="#path-1"></use>
                    </mask>
                    <g id="Clip-2"></g>
                    <path d="M0,1.9652347 C0,1.9652347 0.115388235,1.86245763 0.335623529,1.67845047 C0.390964706,1.63287771 0.452894118,1.58215656 0.520847059,1.52609634 C0.594070588,1.47442179 0.673882353,1.4181709 0.760282353,1.35734366 C0.848752941,1.29632573 0.943811765,1.23073147 1.04545882,1.16056086 C1.15105882,1.09916158 1.26305882,1.03375799 1.38164706,0.964922151 C1.86089412,0.694155125 2.48376471,0.401269104 3.26795294,0.215355125 C4.04856471,0.0271529749 4.99124706,-0.0378692473 6.00489412,0.101709247 C6.51030588,0.170735771 7.03209412,0.290674122 7.5488,0.464765878 C8.07096471,0.631230394 8.58522353,0.854136487 9.0944,1.11022108 C10.1136941,1.62410638 11.0859294,2.29110853 12.0126118,3.03247627 C12.9345882,3.77689491 13.8149647,4.5960605 14.6558118,5.44459097 C15.4991059,6.29274007 16.3085176,7.16739384 17.1024941,8.0279372 C17.8942118,8.89076875 18.6710588,9.73758308 19.4420706,10.5348204 C20.2147765,11.327672 20.9769412,12.0808619 21.7466353,12.7331816 C22.5129412,13.3942727 23.2850824,13.9535401 24.0545882,14.4106024 C24.8254118,14.8619444 25.5984941,15.1962082 26.3538824,15.4303644 C26.5426824,15.4887128 26.7311059,15.5337135 26.9163294,15.5857695 C27.1047529,15.6244777 27.2888471,15.6624232 27.4682353,15.699606 C27.6519529,15.7282082 27.8311529,15.7560476 28.0052706,15.7831243 C28.1810824,15.7985695 28.3535059,15.8140146 28.5229176,15.8340361 C29.1983059,15.8811343 29.8108235,15.8748419 30.3215059,15.8435702 C30.8308706,15.8092476 31.2438588,15.7718741 31.5232,15.7337379 C31.8076235,15.7024662 31.9593412,15.685877 31.9593412,15.685877 C31.9593412,15.685877 31.8396235,15.7804548 31.6060235,15.9509236 C31.4889412,16.0352046 31.3456941,16.1454182 31.1657412,16.2512462 C30.9867294,16.3593623 30.7834353,16.497606 30.5400471,16.6181164 C30.2991059,16.7466354 30.0276706,16.8843071 29.7189647,17.0082497 C29.4142118,17.1489723 29.0686118,17.2528935 28.6945882,17.3732132 C27.9439059,17.5919243 27.0471529,17.7437064 26.0485647,17.7328376 C25.0520471,17.7231128 23.9589647,17.5461609 22.8690824,17.1821508 C21.7820235,16.8148992 20.6974118,16.2771788 19.6805647,15.6137996 C18.6563765,14.9553781 17.6952471,14.1798784 16.7856941,13.353467 C15.8784,12.5253394 15.0232471,11.6455372 14.2081882,10.7598239 C12.5814588,8.98439312 11.1023059,7.18608057 9.66682353,5.67073864 C8.94757647,4.91773935 8.23943529,4.23376659 7.53204706,3.66916014 C7.17778824,3.38866839 6.82691765,3.12762609 6.47397647,2.90986839 C6.29948235,2.79145548 6.12103529,2.70145405 5.94729412,2.59734222 C5.85976471,2.54909993 5.77129412,2.50848487 5.68376471,2.46348416 C5.59604706,2.41962753 5.50964706,2.37233864 5.42174118,2.33687197 C4.72357647,2.02186695 4.02804706,1.83404616 3.37581176,1.75205333 C2.72338824,1.66662824 2.12235294,1.69008201 1.61882353,1.72879025 C1.49195294,1.74042179 1.37185882,1.75129061 1.25891765,1.76158738 C1.14672941,1.77722323 1.04150588,1.79190566 0.943811765,1.80544401 C0.843858824,1.81936373 0.751247059,1.83213935 0.666541176,1.84396158 C0.580517647,1.86016946 0.502211765,1.87504258 0.432188235,1.88819957 C0.151717647,1.94139957 0,1.9652347 0,1.9652347" id="Fill-1" mask="url(#mask-2)"></path>
                </g>
                <path d="M10.9553177,10.8328726 C10.3683318,10.2802467 9.74815621,10 9.1118203,10 C7.41029076,10 6.01789328,11.9978737 5.4441136,13.853923 C5.36365934,14.1135445 4.75390983,16.5785669 5.11152297,17.2126302 C5.227252,17.4176058 5.42482543,17.4422709 5.67105372,17.2564321 C5.93622264,17.056347 6.06046627,16.3988943 6.19183436,15.7031682 C6.31347148,15.0593238 6.46482281,14.2579205 6.6966284,14.2579205 C6.71748048,14.2579205 6.74041777,14.2640868 6.76526649,14.2764193 C6.86101228,14.4998937 6.79515447,14.8617903 6.73155563,15.212205 C6.70861835,15.3393579 6.68568106,15.4662981 6.66934694,15.5883479 L6.66691419,15.6076972 C6.39531588,17.6566022 6.63216073,17.9523708 6.83390458,17.9963853 C6.84050774,17.9978737 6.86135982,18 6.86796298,18 C7.23826112,18 7.52393459,16.4222836 7.62958511,15.7439932 C7.63636204,15.7012545 7.64435534,15.638316 7.65391254,15.5615565 C7.79223132,14.4648097 7.91160946,14.379545 7.94479902,14.379545 C7.95296609,14.379545 7.97885742,14.3931533 8.01743376,14.4446098 C8.2064926,14.6965767 8.1006683,15.3850734 8.02334185,15.8877312 C7.98650318,16.1277908 7.95470376,16.3348926 7.94931697,16.4971295 C7.93975977,16.7894961 7.94671046,17.3091644 8.10049454,17.5052094 C8.1548837,17.5745269 8.21344329,17.5889858 8.25288847,17.5889858 C8.40980035,17.5889858 8.54864044,17.3816713 8.70277205,16.9168616 C8.88001471,16.3816713 8.87497545,15.6113119 8.87028374,14.9317457 C8.8683723,14.6572401 8.86680839,14.3982564 8.8774082,14.1817989 C8.88453266,14.0378482 8.88887684,13.8877312 8.89339479,13.7339996 C8.9151157,12.9857538 8.93979066,12.137997 9.30782983,11.5664469 C9.50001648,11.2679141 9.9709259,10.9593876 10.4265438,10.9593876 C10.5811967,10.9593876 10.7182991,10.99596 10.8338544,11.0680417 C10.8870272,11.1009994 10.9509736,11.0790984 10.9822517,11.0182862 C11.0138773,10.9572613 11.0022349,10.8768871 10.9553177,10.8328726" id="Fill-4" ></path>
                <path d="M1,5.5 C1,5.77616279 0.805841924,6 0.5,6 C0.186972821,6 -4.4408921e-16,5.77616279 -4.4408921e-16,5.5 C-4.4408921e-16,5.22383721 0.191190253,5 0.5,5 C0.803655108,5 1,5.22383721 1,5.5" id="Fill-6" ></path>
                <path d="M5,5.5 C5,5.77616279 4.80581159,6 4.49992189,6 C4.18684581,6 4,5.77616279 4,5.5 C4,5.22383721 4.1910639,5 4.49992189,5 C4.80362443,5 5,5.22383721 5,5.5" id="Fill-8" ></path>
            </g>
        </g>
    </g>
</svg>